<?xml version="1.0" standalone="no"?>
<!DOCTYPE svg PUBLIC "-//W3C//DTD SVG 20010904//EN"
 "http://www.w3.org/TR/2001/REC-SVG-20010904/DTD/svg10.dtd">
<svg version="1.0" xmlns="http://www.w3.org/2000/svg"
 width="1280.000000pt" height="1280.000000pt" viewBox="0 0 1280.000000 1280.000000"
 preserveAspectRatio="xMidYMid meet">

<g transform="translate(0.000000,1280.000000) scale(0.100000,-0.100000)"
fill="#000000" stroke="none">
<path d="M5881 11382 c-27 -52 -125 -304 -172 -438 -45 -132 -85 -204 -122
-222 -66 -32 -7 -40 137 -19 90 13 102 30 26 35 -33 2 -53 8 -57 18 -4 11 29
121 42 141 1 2 59 8 130 14 104 9 130 8 141 -3 12 -12 74 -131 74 -142 0 -3
-19 -6 -42 -8 -23 -2 -43 -9 -46 -15 -3 -10 40 -13 192 -13 189 0 196 1 196
20 0 16 -7 20 -34 20 l-35 0 -87 173 c-82 163 -229 421 -262 460 -26 30 -59
21 -81 -21z m28 -307 c34 -53 64 -102 67 -109 4 -9 -21 -16 -91 -25 -53 -6
-100 -9 -104 -6 -14 8 46 235 62 235 3 0 32 -43 66 -95z"/>
<path d="M6327 11413 c-3 -5 -7 -51 -9 -103 -2 -69 0 -95 9 -95 6 0 30 28 53
63 32 50 50 68 88 84 42 19 53 20 101 10 30 -7 58 -15 62 -19 11 -11 -9 -314
-30 -458 l-17 -120 -42 -3 c-33 -2 -42 -7 -42 -21 0 -16 13 -19 103 -24 56 -4
149 -10 206 -13 77 -5 102 -4 97 4 -4 7 -25 15 -47 18 -22 4 -41 10 -44 13 -2
4 9 99 26 212 16 112 34 236 39 274 19 135 15 128 70 122 115 -14 175 -73 216
-215 7 -25 28 -6 37 34 15 71 24 153 18 163 -18 29 -878 100 -894 74z"/>
<path d="M7312 11378 c-27 -27 -7 -78 31 -78 16 0 18 -5 12 -27 -6 -24 -5 -25
10 -13 20 16 45 63 45 84 0 38 -70 62 -98 34z"/>
<path d="M5248 11276 c-31 -21 -46 -24 -124 -23 -188 2 -368 -104 -444 -259
-34 -69 -34 -180 -1 -243 32 -61 97 -121 173 -158 87 -43 153 -56 257 -51 100
6 180 33 247 84 36 28 48 32 64 24 30 -16 70 -12 70 7 0 23 -40 166 -49 176
-4 4 -22 4 -39 1 -27 -5 -38 -17 -65 -68 -77 -146 -212 -217 -292 -154 -57 45
-185 367 -185 466 0 44 4 53 34 80 31 27 104 52 154 52 42 0 137 -33 180 -62
46 -32 94 -40 114 -20 17 17 -29 172 -51 172 -4 0 -24 -11 -43 -24z"/>
<path d="M7525 11271 c-91 -24 -143 -73 -166 -153 -22 -84 38 -171 159 -228
34 -17 91 -44 126 -60 124 -58 158 -121 101 -189 -35 -41 -84 -55 -166 -48
-117 10 -185 60 -230 169 -18 45 -31 64 -46 66 -18 3 -23 -6 -38 -75 -25 -118
-28 -108 39 -105 40 2 64 -2 75 -12 26 -22 82 -48 136 -62 100 -27 207 -12
285 40 84 55 123 182 81 264 -28 55 -77 89 -236 168 -144 71 -174 99 -156 148
16 41 64 59 145 54 123 -8 227 -75 242 -155 17 -95 46 -95 80 1 13 38 21 72
18 77 -3 5 -25 9 -50 9 -31 0 -56 8 -83 25 -84 56 -235 88 -316 66z"/>
<path d="M2975 11033 c16 -16 246 -107 568 -224 166 -61 307 -114 312 -118 6
-5 34 -17 64 -27 33 -12 147 -83 290 -181 320 -220 500 -312 682 -349 104 -21
182 -15 255 21 68 33 71 50 7 39 -129 -24 -256 4 -461 101 -121 57 -193 101
-322 196 -239 175 -306 209 -566 289 -109 34 -291 90 -404 125 -113 34 -234
71 -270 81 -36 9 -76 23 -90 29 -38 19 -77 29 -65 18z"/>
<path d="M2780 11004 c0 -9 42 -98 94 -198 86 -164 119 -238 170 -378 25 -67
47 -64 40 5 -8 81 -24 155 -50 238 -19 61 -38 94 -92 162 -37 46 -83 105 -102
130 -38 50 -60 65 -60 41z"/>
<path d="M3029 10919 c62 -58 193 -145 360 -239 129 -74 200 -132 238 -198 35
-60 43 -181 19 -296 -29 -142 -30 -140 128 -227 54 -29 105 -64 113 -76 20
-30 52 -153 62 -241 5 -40 14 -79 21 -87 7 -8 36 -22 65 -30 87 -26 128 -82
176 -242 60 -198 227 -528 255 -501 3 3 -29 98 -71 209 -42 112 -90 259 -106
327 -16 67 -40 145 -54 172 -31 62 -95 125 -140 140 -29 9 -35 17 -40 48 -11
66 -45 158 -78 213 -33 55 -54 72 -190 161 -67 43 -78 54 -72 72 3 11 9 91 12
177 6 153 5 157 -20 213 -51 110 -101 148 -408 301 -151 75 -278 141 -283 146
-6 5 -17 9 -25 9 -10 -1 6 -21 38 -51z"/>
<path d="M2940 10921 c0 -29 28 -69 94 -137 58 -58 87 -98 126 -175 28 -54 53
-99 55 -99 12 0 -117 262 -162 327 -39 58 -113 112 -113 84z"/>
<path d="M10118 10924 c-7 -7 -307 -49 -458 -64 -459 -45 -680 -82 -915 -152
-163 -49 -441 -160 -665 -266 -52 -24 -198 -91 -324 -148 -235 -106 -268 -124
-227 -124 73 0 226 57 471 177 276 135 555 237 849 312 214 55 291 67 553 85
120 9 250 22 290 30 140 28 410 67 416 61 4 -4 -16 -27 -43 -53 -170 -156
-292 -282 -399 -412 -48 -58 -114 -137 -147 -176 -85 -102 -122 -152 -152
-206 -61 -109 2 -46 381 389 257 294 278 315 373 378 55 37 104 76 109 86 27
50 -1 89 -64 89 -23 0 -45 -3 -48 -6z"/>
<path d="M9730 10686 c-123 -47 -365 -146 -600 -246 -354 -151 -568 -285 -623
-390 -31 -59 -31 -101 -1 -148 15 -23 13 -26 -49 -83 -39 -35 -76 -80 -91
-111 -40 -80 -34 -172 16 -225 l20 -21 -30 -79 c-17 -44 -34 -102 -37 -129 -6
-44 -4 -54 17 -79 21 -24 29 -27 60 -21 37 7 164 83 155 92 -3 3 -32 -6 -64
-20 -32 -15 -72 -28 -88 -29 -28 -2 -30 1 -33 33 -2 26 10 62 48 138 l50 104
-36 41 c-33 39 -35 46 -32 93 6 66 40 111 142 184 41 30 78 61 81 69 5 12 -13
44 -60 107 -23 32 82 123 274 238 71 42 277 146 458 230 369 172 444 209 529
260 83 50 41 47 -106 -8z"/>
<path d="M9159 10635 c-483 -51 -532 -66 -1081 -337 -301 -149 -355 -172 -410
-178 -80 -8 -53 -24 30 -18 46 4 115 30 367 143 562 250 691 294 985 334 282
39 425 63 435 72 14 14 -87 9 -326 -16z"/>
<path d="M9715 10601 c-39 -24 -80 -69 -263 -293 -84 -102 -182 -218 -218
-257 -36 -39 -62 -71 -57 -71 5 0 73 72 153 161 157 176 243 264 368 380 45
41 82 81 82 87 0 18 -31 14 -65 -7z"/>
<path d="M3780 10604 c1 -9 369 -283 492 -366 172 -116 524 -234 674 -226 l59
3 -235 77 c-259 86 -338 125 -490 240 -144 109 -269 193 -347 232 -71 35 -153
57 -153 40z"/>
<path d="M9073 10512 c-26 -21 -82 -62 -123 -91 -109 -78 -107 -79 22 -12 65
34 124 61 131 61 20 0 67 46 67 65 0 27 -46 16 -97 -23z"/>
<path d="M6045 10530 c-232 -21 -615 -98 -649 -131 -6 -5 -20 -9 -32 -9 -12 0
-77 -18 -145 -39 -68 -22 -157 -49 -198 -61 -68 -20 -72 -23 -58 -38 21 -20
129 -32 223 -25 66 5 72 4 87 -17 l15 -22 65 21 c35 12 104 26 153 31 49 6
163 28 254 50 292 70 676 95 875 57 50 -9 162 -24 250 -32 196 -19 265 -35
352 -78 38 -19 92 -42 121 -52 l53 -17 137 62 c75 35 141 66 145 70 19 17
-256 101 -503 154 -280 60 -445 78 -755 81 -159 2 -335 -1 -390 -5z"/>
<path d="M3853 10379 c6 -78 32 -158 71 -215 25 -36 184 -204 194 -204 3 0
-28 35 -70 78 -91 93 -118 143 -130 239 -10 85 -37 164 -57 171 -12 4 -13 -8
-8 -69z"/>
<path d="M8314 10272 c-116 -43 -304 -111 -417 -152 -288 -104 -274 -121 28
-35 160 46 178 52 435 164 154 67 217 102 180 100 -8 0 -110 -35 -226 -77z"/>
<path d="M3209 10314 c-32 -9 -60 -28 -89 -60 -129 -140 -116 -353 27 -445 52
-32 93 -37 117 -14 20 21 12 40 -45 101 -52 56 -75 116 -65 172 9 59 21 65
112 59 97 -7 124 5 124 56 -1 49 -34 113 -69 131 -36 19 -52 19 -112 0z m116
-44 c19 -36 20 -94 3 -87 -7 2 -39 10 -71 17 -45 10 -63 11 -83 1 -39 -17 -42
-5 -8 30 30 33 96 68 126 69 10 0 24 -13 33 -30z"/>
<path d="M6190 10314 c-154 -19 -271 -40 -411 -74 -89 -22 -202 -49 -250 -60
-146 -32 -233 -60 -221 -72 14 -14 194 8 457 56 241 44 368 56 569 56 194 0
328 -18 715 -95 156 -31 295 -55 309 -53 25 3 23 5 -23 30 -103 54 -428 145
-673 189 -113 20 -386 33 -472 23z"/>
<path d="M4180 10222 c0 -13 116 -103 207 -161 93 -59 213 -112 317 -142 73
-20 168 -26 150 -10 -5 5 -81 39 -169 75 -88 37 -235 107 -326 156 -92 50
-170 90 -173 90 -3 0 -6 -4 -6 -8z"/>
<path d="M8145 10086 c-350 -130 -447 -179 -295 -150 129 24 224 55 325 105
99 50 184 109 155 108 -8 0 -91 -29 -185 -63z"/>
<path d="M3218 10085 c-4 -4 16 -50 43 -103 39 -77 54 -119 69 -203 37 -197
73 -278 186 -430 92 -122 208 -218 394 -328 319 -189 372 -230 411 -315 20
-44 24 -157 10 -268 -4 -32 -4 -58 0 -58 11 0 36 85 50 164 34 199 -29 296
-313 484 -307 204 -449 316 -523 412 -80 105 -99 146 -175 394 -30 100 -133
270 -152 251z"/>
<path d="M7470 10054 c0 -74 136 -251 385 -499 140 -140 203 -211 239 -268 26
-43 50 -76 53 -73 9 9 -76 172 -113 217 -20 24 -142 158 -270 297 -129 139
-248 277 -264 305 -29 50 -30 51 -30 21z"/>
<path d="M3370 10047 c0 -8 23 -61 51 -118 28 -57 69 -149 91 -204 99 -250
174 -338 403 -475 77 -46 150 -90 163 -98 12 -8 22 -12 22 -9 0 2 -74 53 -165
112 -239 155 -314 247 -370 456 -14 52 -44 135 -69 185 -55 113 -126 199 -126
151z"/>
<path d="M4300 10021 c0 -22 143 -130 212 -160 44 -20 259 -56 281 -48 15 6
-10 16 -185 77 -76 27 -176 69 -223 93 -47 25 -85 42 -85 38z"/>
<path d="M5062 9867 c-23 -42 -61 -112 -84 -154 -120 -223 -210 -365 -259
-409 -13 -11 -52 -38 -86 -58 -68 -41 -91 -63 -52 -51 51 16 159 88 213 143
83 85 140 170 211 317 101 209 145 374 57 212z"/>
<path d="M9288 9900 c-17 -17 -27 -34 -24 -38 4 -3 22 10 41 31 41 44 26 50
-17 7z"/>
<path d="M8866 9868 c-19 -18 -37 -44 -41 -58 -6 -21 -2 -19 28 15 34 39 37
40 99 40 54 0 77 -6 139 -37 185 -91 233 -228 142 -409 -61 -122 -167 -212
-266 -225 -47 -7 -113 16 -164 56 -14 11 -28 18 -31 15 -9 -8 40 -55 86 -82
38 -23 51 -25 117 -21 56 4 84 11 121 33 72 42 147 118 182 183 35 65 57 175
48 234 -9 52 -50 135 -90 176 -57 62 -185 112 -283 112 -46 0 -58 -4 -87 -32z"/>
<path d="M6045 9871 c-8 -14 43 -50 82 -57 58 -11 177 2 224 25 24 12 35 19
24 15 -95 -28 -121 -28 -196 -1 -76 28 -123 34 -134 18z"/>
<path d="M7903 9860 c-18 -11 -33 -24 -33 -29 0 -8 33 -21 56 -21 14 0 64 46
64 60 0 17 -53 11 -87 -10z"/>
<path d="M6904 9834 c-28 -7 -107 -37 -175 -65 -264 -110 -409 -149 -551 -149
-91 0 -144 13 -328 79 -116 43 -258 81 -295 81 -34 -1 15 -23 236 -105 256
-96 291 -105 410 -105 129 0 235 28 485 127 109 44 235 93 279 108 44 16 84
32 90 37 15 13 -95 8 -151 -8z"/>
<path d="M4380 9832 c0 -31 137 -108 157 -88 10 10 -6 34 -41 61 -36 27 -116
46 -116 27z"/>
<path d="M8734 9776 c-35 -35 -44 -72 -22 -94 15 -15 88 -15 162 0 52 10 60 9
84 -9 44 -33 74 -97 79 -172 6 -77 -6 -113 -42 -137 -26 -17 -28 -16 -80 9
-66 32 -66 10 0 -28 51 -30 84 -32 118 -5 65 51 78 221 24 313 -48 82 -115
104 -221 72 -49 -15 -106 -20 -106 -9 0 11 23 50 43 72 33 36 -1 26 -39 -12z"/>
<path d="M8838 9493 c-287 -296 -327 -345 -390 -479 -41 -88 -58 -157 -58
-241 0 -88 19 -148 72 -231 34 -52 78 -96 78 -78 0 3 -16 42 -37 88 -28 65
-37 100 -41 160 -9 146 46 262 243 518 243 316 301 400 276 400 -5 0 -70 -62
-143 -137z"/>
<path d="M5551 9609 c-1 -10 106 -255 125 -286 48 -78 68 -102 99 -119 26 -13
38 -15 46 -7 18 18 2 48 -49 93 -98 86 -115 107 -167 215 -30 60 -54 107 -54
104z"/>
<path d="M5106 9570 c12 -46 90 -204 137 -277 53 -80 91 -115 121 -111 41 6 9
73 -53 112 -54 34 -106 102 -163 209 -27 51 -46 81 -42 67z"/>
<path d="M7107 9491 c-16 -37 -46 -96 -69 -130 -52 -81 -72 -161 -38 -161 23
0 43 43 90 191 28 89 50 163 48 164 -2 2 -16 -27 -31 -64z"/>
<path d="M7362 9481 c-12 -38 -36 -88 -53 -111 -58 -80 -87 -170 -56 -170 22
0 57 44 76 96 20 51 64 244 58 250 -2 2 -13 -27 -25 -65z"/>
<path d="M8932 9491 c-49 -46 -42 -101 13 -101 56 0 91 61 65 111 -15 27 -40
24 -78 -10z"/>
<path d="M6860 9443 c0 -5 -34 -46 -75 -90 -59 -63 -75 -88 -75 -111 0 -16 6
-32 14 -35 19 -7 38 17 65 81 12 29 35 75 52 103 16 28 27 54 24 57 -3 3 -5 1
-5 -5z"/>
<path d="M7524 9383 c-15 -21 -45 -57 -67 -79 -32 -34 -38 -47 -35 -75 2 -25
8 -34 22 -34 14 0 25 18 46 70 14 39 36 89 49 113 27 52 21 54 -15 5z"/>
<path d="M5030 9328 c0 -8 69 -128 87 -149 14 -16 48 -15 58 1 12 19 -16 60
-52 75 -20 9 -50 30 -65 48 -15 18 -27 29 -28 25z"/>
<path d="M9193 9234 c-50 -54 -91 -74 -177 -86 -105 -15 -132 -12 -195 27 -31
19 -65 35 -75 35 -54 0 -165 -177 -227 -363 -40 -117 -37 -168 14 -270 45 -87
50 -154 16 -188 -19 -19 -29 -21 -85 -16 -91 9 -171 -7 -206 -39 -54 -53 -78
-99 -92 -178 -21 -119 -44 -140 -181 -167 -49 -9 -67 -19 -102 -54 -42 -41
-43 -44 -43 -108 0 -83 -23 -143 -61 -162 -17 -9 -56 -15 -100 -15 -119 0
-180 -48 -240 -192 -45 -106 -72 -138 -115 -138 -19 0 -47 9 -62 20 -26 19
-31 20 -67 7 -50 -18 -220 -120 -259 -155 -67 -62 -96 -214 -76 -396 24 -216
39 -322 55 -365 16 -47 10 -61 -27 -61 -31 0 -60 136 -83 395 -21 248 -32 286
-54 185 -25 -117 -8 -346 40 -535 20 -76 20 -80 2 -93 -26 -20 -79 -42 -102
-42 -42 0 -49 166 -20 514 11 129 8 176 -12 176 -19 0 -48 -87 -59 -176 -14
-128 -12 -308 5 -405 25 -144 31 -128 -60 -156 -66 -20 -93 -23 -155 -19 -102
8 -153 23 -146 42 3 9 15 61 27 117 30 146 24 328 -15 444 -27 82 -67 145 -82
130 -5 -4 7 -81 25 -170 39 -187 47 -316 29 -437 l-13 -85 -43 -3 -43 -3 8 38
c4 21 8 99 7 173 0 147 -35 346 -76 441 -22 54 -40 65 -33 22 31 -184 48 -532
31 -612 -8 -32 -10 -33 -43 -28 -20 4 -37 8 -40 10 -2 3 3 29 12 59 38 133 44
196 34 361 -10 164 -36 279 -76 338 -38 55 -179 176 -229 195 -63 24 -185 25
-316 2 -75 -14 -103 -15 -122 -7 -30 14 -35 25 -43 103 -7 72 -32 127 -70 154
-46 32 -145 78 -205 96 -69 20 -80 37 -72 109 5 46 2 64 -20 112 -14 31 -40
70 -57 86 -30 28 -35 29 -128 29 -62 0 -101 4 -109 12 -16 16 -15 67 3 117 9
27 11 49 6 64 -17 43 -37 51 -121 48 -93 -3 -127 11 -160 65 -21 32 -23 50
-25 192 -2 173 -13 220 -65 302 -60 94 -136 153 -291 229 -150 73 -267 157
-356 255 -23 25 -46 46 -51 46 -21 0 -206 -236 -354 -450 -58 -85 -197 -327
-240 -420 -207 -445 -325 -850 -368 -1265 -27 -266 -22 -700 11 -945 83 -609
342 -1246 710 -1747 146 -198 431 -515 448 -498 5 6 33 55 62 110 28 55 69
123 91 152 21 29 38 55 38 59 0 4 6 12 14 18 7 6 66 90 129 186 148 224 361
523 440 620 34 41 106 119 161 173 55 53 97 99 95 101 -2 1 -25 15 -51 30 -46
27 -164 47 -285 50 -51 1 -56 -4 -43 -39 13 -34 5 -45 -14 -20 -13 18 -15 18
-41 -13 -37 -44 -87 -68 -191 -92 -95 -22 -142 -46 -174 -88 -105 -135 -227
-211 -375 -232 -137 -19 -193 -12 -262 37 -60 42 -65 49 -107 148 -15 36 -35
66 -50 75 -37 22 -179 228 -210 305 -21 53 -26 82 -26 154 0 76 3 92 22 117
29 38 38 44 67 44 20 0 22 4 16 23 -14 47 -17 165 -5 203 14 44 46 84 67 84 8
0 31 -9 52 -20 30 -15 40 -27 45 -54 9 -50 26 -55 26 -9 0 44 14 133 30 192
15 56 56 100 100 107 l36 6 22 -64 c12 -34 22 -76 22 -92 0 -49 11 -22 21 50
13 98 86 241 153 301 l50 45 -27 48 c-41 73 -36 140 14 196 19 20 19 22 0 75
-25 71 -77 191 -135 308 -59 122 -63 176 -14 225 25 25 45 34 82 39 88 12 88
12 177 -312 23 -84 49 -174 58 -200 l17 -46 57 -3 57 -3 26 -52 c15 -29 27
-53 29 -55 1 -1 19 5 41 14 48 20 107 13 222 -27 103 -35 115 -36 173 -5 68
37 132 42 204 18 42 -14 65 -18 77 -11 19 10 38 4 38 -12 0 -5 -9 -9 -20 -9
-26 0 -25 -14 4 -53 35 -47 63 -107 72 -152 5 -31 20 -52 65 -95 60 -57 70
-82 48 -118 -20 -32 13 -79 64 -93 73 -20 117 -48 133 -84 12 -31 21 -36 86
-55 40 -12 81 -31 91 -42 25 -29 22 -83 -5 -103 -30 -20 -20 -27 90 -62 101
-31 120 -29 291 44 131 55 191 102 248 194 25 41 39 57 47 49 5 -5 25 -10 44
-10 l33 0 -28 -50 c-53 -96 -115 -145 -238 -192 l-50 -18 50 4 c117 10 241 89
301 192 24 40 29 44 65 44 25 0 42 -5 45 -14 13 -33 -90 -189 -184 -278 -72
-69 -66 -78 6 -12 63 56 135 150 174 227 27 54 31 59 56 53 74 -17 161 -27
195 -21 37 5 37 5 37 -31 0 -20 -7 -61 -16 -91 -20 -68 -14 -127 17 -159 28
-29 48 -30 83 -3 36 28 34 66 -9 177 -19 50 -32 97 -29 105 7 18 123 62 133
50 4 -4 28 -37 54 -73 25 -36 61 -82 79 -102 51 -57 238 -202 238 -185 0 3
-26 24 -57 48 -97 72 -183 161 -224 230 -21 36 -39 72 -39 80 0 12 25 27 131
77 4 1 12 -12 19 -29 30 -72 117 -189 204 -274 72 -70 120 -107 221 -166 123
-72 200 -109 228 -109 6 0 -17 15 -53 33 -211 107 -366 254 -488 462 -55 95
-60 118 -28 133 25 11 27 9 66 -66 22 -42 73 -121 113 -174 62 -84 89 -110
204 -195 76 -57 184 -125 255 -162 l123 -63 70 5 c91 6 175 48 274 136 67 59
79 76 129 181 l56 115 6 120 c7 149 16 169 130 289 47 50 107 119 133 153 93
122 176 167 309 167 81 1 89 -1 113 -25 32 -31 37 -85 10 -105 -10 -7 -49 -25
-87 -40 -90 -34 -96 -47 -53 -115 19 -31 42 -85 51 -126 l18 -72 46 43 c55 51
77 64 150 87 54 16 55 18 58 57 2 22 -4 56 -12 76 -14 34 -14 37 2 43 9 4 31
7 49 7 48 0 80 -36 104 -116 33 -109 54 -106 54 9 1 66 4 78 24 94 22 18 24
18 62 -1 50 -26 68 -54 82 -129 11 -60 24 -75 51 -65 22 8 27 29 33 149 5 115
12 135 46 135 28 0 90 -68 113 -124 15 -35 24 -46 42 -46 23 0 28 -15 13 -39
-7 -11 -11 -10 -20 5 -8 15 -9 4 -5 -46 7 -75 29 -153 48 -169 18 -15 24 13
32 146 8 124 12 131 53 113 65 -26 96 -80 129 -218 40 -168 48 -269 28 -348
-24 -92 -180 -387 -235 -443 -40 -41 -240 -184 -308 -220 -31 -16 -88 -27
-288 -56 -200 -29 -270 -30 -476 -9 -169 17 -201 15 -334 -23 -109 -30 -155
-49 -155 -63 0 -5 57 -77 126 -158 180 -209 384 -483 479 -640 20 -35 63 -114
94 -175 32 -62 75 -143 95 -180 l38 -68 24 21 c12 13 51 56 86 98 35 41 89
105 122 141 67 75 266 337 266 350 0 5 -7 14 -15 21 -19 16 -2 40 24 33 14 -3
30 14 68 74 75 118 147 249 182 333 13 30 39 87 57 126 18 39 40 89 48 110 88
234 113 309 146 429 44 159 85 359 94 455 3 36 10 108 16 160 18 167 13 600
-10 830 -24 249 -32 290 -93 520 -87 324 -202 610 -349 870 -95 166 -195 328
-232 375 -18 22 -49 65 -69 95 -20 30 -66 91 -102 135 -37 44 -75 91 -85 105
l-18 25 -39 -41z m-5074 -460 c-11 -13 -39 -20 -39 -9 0 3 5 14 12 25 9 14 15
16 25 8 10 -8 10 -14 2 -24z m-329 2 c0 -26 -21 -29 -43 -7 l-21 21 32 0 c21
0 32 -5 32 -14z m5845 -106 c3 -5 1 -10 -4 -10 -6 0 -11 5 -11 10 0 6 2 10 4
10 3 0 8 -4 11 -10z m-600 -85 c0 -10 -6 -20 -12 -22 -8 -3 -13 5 -13 22 0 17
5 25 13 23 6 -3 12 -13 12 -23z m-5500 -14 c-3 -12 -13 -21 -21 -21 -20 0 -17
38 4 42 23 6 25 3 17 -21z m-45 -5 c0 -3 -4 -8 -10 -11 -5 -3 -10 -1 -10 4 0
6 5 11 10 11 6 0 10 -2 10 -4z m592 -228 c-15 -15 -27 14 -17 40 6 15 8 15 18
-6 7 -16 7 -26 -1 -34z m5512 36 c9 -3 16 -15 16 -27 0 -19 -1 -20 -20 -2 -30
27 -28 41 4 29z m-374 -38 c0 -3 -4 -8 -10 -11 -5 -3 -10 -1 -10 4 0 6 5 11
10 11 6 0 10 -2 10 -4z m-380 -45 c0 -6 -9 -9 -20 -8 -11 1 -20 5 -20 9 0 4 9
8 20 8 11 0 20 -4 20 -9z m285 -31 c-14 -15 -21 -17 -26 -8 -11 17 -2 28 23
28 21 0 21 -1 3 -20z m-351 -5 c-4 -8 -13 -15 -21 -15 -13 0 -13 3 -3 15 7 8
16 15 21 15 5 0 6 -7 3 -15z m-5164 -196 c0 -11 -2 -19 -4 -19 -2 0 -11 -3
-20 -6 -17 -7 -22 19 -10 50 8 21 34 2 34 -25z m5768 -31 c-3 -7 -13 -13 -23
-13 -10 0 -20 6 -22 13 -3 7 5 12 22 12 17 0 25 -5 23 -12z m-5923 -118 c-3
-5 -13 -10 -21 -10 -8 0 -12 5 -9 10 3 6 13 10 21 10 8 0 12 -4 9 -10z m4970
-20 c7 -12 -12 -50 -25 -50 -6 0 -10 14 -10 30 0 30 21 42 35 20z m1285 -55
c-9 -11 -17 -12 -31 -4 -26 14 -24 26 9 37 31 10 43 -8 22 -33z m-5239 -12
c-8 -15 -10 -15 -11 -2 0 17 10 32 18 25 2 -3 -1 -13 -7 -23z m199 7 c0 -5 -5
-10 -11 -10 -5 0 -7 5 -4 10 3 6 8 10 11 10 2 0 4 -4 4 -10z m5155 -70 c3 -5
-3 -10 -15 -10 -12 0 -18 5 -15 10 3 6 10 10 15 10 5 0 12 -4 15 -10z m-950
-109 c-14 -15 -16 -13 -13 19 4 43 22 59 26 23 2 -14 -4 -33 -13 -42z m-40 49
c-3 -5 -12 -10 -20 -10 -8 0 -17 5 -20 10 -4 6 5 10 20 10 15 0 24 -4 20 -10z
m-4645 -35 c10 -12 10 -15 -3 -15 -8 0 -20 7 -27 15 -10 12 -10 15 3 15 8 0
20 -7 27 -15z m4474 -50 c-3 -7 -14 -11 -25 -8 -27 7 -24 18 5 19 16 1 23 -3
20 -11z m-5924 -24 c15 -29 12 -41 -9 -41 -21 0 -30 16 -23 43 6 22 19 22 32
-2z m4953 -63 c6 -19 -4 -49 -14 -42 -12 7 -12 54 0 54 5 0 11 -6 14 -12z
m1935 -38 c7 -11 9 -20 4 -20 -10 0 -32 22 -32 32 0 15 15 8 28 -12z m-6418
-41 c0 -6 -4 -7 -10 -4 -5 3 -10 11 -10 16 0 6 5 7 10 4 6 -3 10 -11 10 -16z
m4477 -11 c-3 -7 -5 -2 -5 12 0 14 2 19 5 13 2 -7 2 -19 0 -25z m1033 28 c0
-3 -4 -8 -10 -11 -5 -3 -10 -1 -10 4 0 6 5 11 10 11 6 0 10 -2 10 -4z m35 -46
c3 -5 2 -10 -4 -10 -5 0 -13 5 -16 10 -3 6 -2 10 4 10 5 0 13 -4 16 -10z
m-5506 -26 c3 -16 1 -17 -13 -5 -19 16 -21 34 -3 29 6 -3 14 -13 16 -24z
m1571 16 c0 -5 -4 -10 -10 -10 -5 0 -10 5 -10 10 0 6 5 10 10 10 6 0 10 -4 10
-10z m4129 -47 c3 -2 -1 -9 -7 -15 -14 -14 -42 -2 -50 21 -3 8 4 10 25 5 15
-4 30 -9 32 -11z m-958 -86 c-8 -8 -11 -7 -11 4 0 9 3 19 7 23 4 4 9 2 11 -4
3 -7 -1 -17 -7 -23z m299 -47 c0 -5 -6 -10 -14 -10 -8 0 -18 5 -21 10 -3 6 3
10 14 10 12 0 21 -4 21 -10z m128 -93 c2 -15 -1 -27 -6 -27 -16 0 -44 38 -37
50 12 20 40 6 43 -23z m242 13 c0 -5 -2 -10 -4 -10 -3 0 -8 5 -11 10 -3 6 -1
10 4 10 6 0 11 -4 11 -10z m-4175 -10 c-3 -5 -11 -10 -16 -10 -6 0 -7 5 -4 10
3 6 11 10 16 10 6 0 7 -4 4 -10z m3071 -15 c4 -14 3 -29 0 -33 -9 -8 -26 18
-26 41 0 26 19 20 26 -8z m1244 4 c0 -5 -4 -9 -10 -9 -5 0 -10 7 -10 16 0 8 5
12 10 9 6 -3 10 -10 10 -16z m-3466 5 c23 -9 20 -19 -9 -32 -26 -12 -39 -3
-29 22 7 17 14 19 38 10z m2156 -4 c0 -5 -4 -10 -10 -10 -5 0 -10 5 -10 10 0
6 5 10 10 10 6 0 10 -4 10 -10z m-1650 -26 c0 -9 -7 -14 -17 -12 -25 5 -28 28
-4 28 12 0 21 -6 21 -16z m3578 -59 c-6 -14 -13 -23 -16 -21 -7 7 9 46 18 46
5 0 4 -11 -2 -25z m-6728 -55 c0 -5 -4 -10 -10 -10 -5 0 -10 5 -10 10 0 6 5
10 10 10 6 0 10 -4 10 -10z m530 -35 c-7 -14 -17 -25 -21 -25 -9 0 -1 29 14
48 16 21 21 4 7 -23z m2124 -17 c-7 -11 -32 -10 -39 2 -3 6 -3 20 1 32 l6 21
18 -24 c10 -13 16 -27 14 -31z m-314 -47 c0 -9 -24 -21 -41 -21 -5 0 -9 7 -9
15 0 9 9 15 25 15 14 0 25 -4 25 -9z m2245 -77 c14 -11 16 -18 8 -21 -7 -3
-13 -18 -13 -34 0 -26 -2 -28 -19 -20 -22 12 -34 61 -19 79 13 15 19 15 43 -4z
m-1448 -39 c-4 -8 -11 -15 -17 -15 -14 0 -13 27 3 33 16 6 21 1 14 -18z m2343
-47 c0 -16 -3 -19 -11 -11 -6 6 -8 16 -5 22 11 17 16 13 16 -11z m-5236 -59
c-8 -13 -24 -1 -24 18 0 13 3 13 15 3 8 -7 12 -16 9 -21z m4316 6 c0 -8 -6
-15 -14 -15 -17 0 -28 14 -19 24 12 12 33 6 33 -9z m-1948 -37 c-7 -7 -12 -8
-12 -2 0 14 12 26 19 19 2 -3 -1 -11 -7 -17z m-2474 -35 c4 -27 -5 -29 -36 -7
-26 18 -20 36 11 32 14 -2 23 -11 25 -25z m4122 15 c-1 -15 -28 -53 -34 -47
-5 5 -9 29 -7 47 0 6 10 12 21 12 11 0 20 -6 20 -12z m270 -20 c0 -4 -5 -10
-12 -14 -12 -8 -40 24 -32 37 5 9 44 -11 44 -23z m470 -92 c0 -3 -4 -8 -10
-11 -5 -3 -10 -1 -10 4 0 6 5 11 10 11 6 0 10 -2 10 -4z m-1829 -49 c-8 -8
-11 -5 -11 9 0 27 14 41 18 19 2 -9 -1 -22 -7 -28z m1219 22 c0 -6 -4 -7 -10
-4 -5 3 -10 11 -10 16 0 6 5 7 10 4 6 -3 10 -11 10 -16z m-1630 -89 c0 -5 -4
-10 -10 -10 -5 0 -10 5 -10 10 0 6 5 10 10 10 6 0 10 -4 10 -10z m2459 -37 c1
-21 -17 -15 -24 7 -9 27 6 50 16 24 4 -10 8 -25 8 -31z m-2050 13 c10 -12 7
-18 -14 -32 -31 -21 -42 -12 -27 21 13 28 24 31 41 11z m2061 -56 c0 -5 -7
-10 -16 -10 -8 0 -12 5 -9 10 3 6 10 10 16 10 5 0 9 -4 9 -10z m-2245 -110
c-3 -5 -13 -10 -21 -10 -8 0 -12 5 -9 10 3 6 13 10 21 10 8 0 12 -4 9 -10z
m2355 -30 c0 -5 -2 -10 -4 -10 -3 0 -8 5 -11 10 -3 6 -1 10 4 10 6 0 11 -4 11
-10z m-210 -106 c0 -9 -7 -14 -17 -12 -25 5 -28 28 -4 28 12 0 21 -6 21 -16z
m250 -168 c-6 -20 -16 -36 -20 -36 -9 0 -30 32 -30 44 0 7 54 35 58 31 2 -2
-1 -20 -8 -39z m-3673 -578 c-3 -8 -6 -5 -6 6 -1 11 2 17 5 13 3 -3 4 -12 1
-19z m5454 -21 c-8 -8 -11 -7 -11 4 0 9 3 19 7 23 4 4 9 2 11 -4 3 -7 -1 -17
-7 -23z m69 -12 c0 -8 -7 -15 -15 -15 -16 0 -20 12 -8 23 11 12 23 8 23 -8z
m-5834 -100 c-26 -19 -42 -19 -26 0 7 8 20 15 29 15 13 -1 13 -3 -3 -15z
m5054 -79 c-6 -8 -19 -12 -27 -9 -14 6 -14 8 3 14 30 12 37 10 24 -5z m-5040
-182 c0 -17 -5 -24 -20 -24 -23 0 -24 1 -9 34 14 30 29 25 29 -10z m-220 -4
c0 -11 -4 -20 -10 -20 -5 0 -10 2 -10 4 0 2 -3 11 -6 20 -4 11 -1 16 10 16 9
0 16 -8 16 -20z m-83 -158 c9 -5 6 -17 -10 -42 l-22 -34 -9 33 c-7 25 -6 35 5
42 17 11 21 11 36 1z m5649 -163 c7 -12 -12 -29 -34 -29 -10 0 -10 5 -2 20 12
22 25 26 36 9z m-6066 -24 c0 -8 -4 -15 -10 -15 -5 0 -10 7 -10 15 0 8 5 15
10 15 6 0 10 -7 10 -15z m5530 -65 c0 -5 -9 -14 -20 -20 -22 -12 -27 -1 -8 18
14 14 28 16 28 2z m-4930 -120 c0 -13 -11 -13 -30 0 -12 8 -11 10 8 10 12 0
22 -4 22 -10z m-280 -77 c0 -13 -3 -13 -15 -3 -8 7 -15 19 -15 27 0 13 3 13
15 3 8 -7 15 -19 15 -27z"/>
<path d="M7008 9165 c-2 -1 -563 -5 -1247 -9 -685 -3 -1246 -8 -1248 -10 -9
-9 282 -360 330 -397 150 -120 431 -204 722 -216 206 -8 324 27 525 153 58 37
127 80 153 97 81 51 103 47 407 -77 376 -153 391 -158 537 -164 91 -3 140 0
196 12 94 21 238 93 342 171 81 60 268 242 384 373 l64 73 -581 -1 c-319 -1
-582 -3 -584 -5z m-1338 -126 c0 -5 -4 -9 -10 -9 -5 0 -10 7 -10 16 0 8 5 12
10 9 6 -3 10 -10 10 -16z m-240 -43 c0 -11 -19 -15 -25 -6 -3 5 1 10 9 10 9 0
16 -2 16 -4z m1450 -6 c0 -5 -7 -10 -16 -10 -8 0 -12 5 -9 10 3 6 10 10 16 10
5 0 9 -4 9 -10z m-617 -27 c-7 -2 -19 -2 -25 0 -7 3 -2 5 12 5 14 0 19 -2 13
-5z m-1298 -93 c3 -5 1 -10 -4 -10 -6 0 -11 5 -11 10 0 6 2 10 4 10 3 0 8 -4
11 -10z m2405 -130 c0 -5 -2 -10 -4 -10 -3 0 -8 5 -11 10 -3 6 -1 10 4 10 6 0
11 -4 11 -10z m-440 -41 c0 -6 -4 -7 -10 -4 -5 3 -10 11 -10 16 0 6 5 7 10 4
6 -3 10 -11 10 -16z m-1130 -29 c0 -5 -2 -10 -4 -10 -3 0 -8 5 -11 10 -3 6 -1
10 4 10 6 0 11 -4 11 -10z"/>
<path d="M4150 9106 c0 -2 8 -10 18 -17 15 -13 16 -12 3 4 -13 16 -21 21 -21
13z"/>
<path d="M7843 8641 c-50 -9 -61 -17 -44 -34 8 -8 66 -14 174 -18 140 -5 172
-10 236 -33 41 -14 76 -24 78 -22 9 8 -306 107 -353 111 -27 2 -68 0 -91 -4z"/>
<path d="M6472 8631 c-8 -4 -12 -19 -10 -32 2 -18 15 -27 63 -44 33 -12 76
-29 95 -38 l35 -17 -29 22 c-16 13 -54 44 -83 71 -29 26 -54 47 -56 47 -1 0
-8 -4 -15 -9z"/>
<path d="M6114 8612 c-6 -4 -27 -33 -48 -64 -21 -32 -42 -58 -47 -58 -5 0 -9
-5 -9 -11 0 -6 14 1 30 14 17 14 48 36 70 48 43 24 61 56 39 70 -17 11 -21 11
-35 1z"/>
<path d="M4715 8577 c-48 -27 -170 -117 -160 -117 4 0 19 8 33 19 57 39 99 55
165 62 72 7 93 18 84 43 -9 24 -75 20 -122 -7z"/>
<path d="M5830 8470 c0 -18 39 -89 96 -178 30 -45 62 -99 73 -120 25 -50 49
-70 56 -50 8 21 -21 140 -44 186 -30 57 -181 193 -181 162z"/>
<path d="M6715 8427 c-58 -59 -91 -115 -111 -192 -16 -59 -18 -155 -4 -155 6
0 10 7 10 15 0 48 83 219 174 358 33 49 -9 33 -69 -26z"/>
<path d="M6178 8433 c-8 -10 -21 -33 -28 -51 -7 -18 -29 -47 -49 -64 -45 -38
-24 -28 57 29 52 37 62 49 62 74 0 33 -19 38 -42 12z"/>
<path d="M6450 8425 c-20 -24 -5 -40 58 -63 32 -12 62 -22 65 -22 3 0 -18 23
-47 50 -29 28 -55 50 -58 50 -3 0 -11 -7 -18 -15z"/>
<path d="M8300 8424 c-52 -19 -113 -59 -152 -101 -33 -35 -78 -132 -85 -183
l-5 -39 -57 -6 c-215 -23 -321 -115 -321 -281 l0 -41 -67 -7 c-86 -9 -146 -36
-201 -89 -49 -47 -80 -100 -97 -167 l-11 -45 -80 -6 c-55 -5 -115 -19 -199
-49 -135 -47 -234 -60 -312 -41 -70 18 -175 83 -258 162 -40 38 -75 69 -79 69
-17 0 32 -67 97 -133 135 -136 224 -180 367 -180 72 0 104 7 210 41 172 56
192 59 235 33 44 -26 71 -27 83 -3 5 9 17 52 26 95 32 146 111 209 268 215
115 5 125 15 109 107 -8 46 -9 77 -1 103 20 75 106 127 237 142 112 13 109 10
116 93 7 86 23 127 72 185 53 61 128 102 190 103 63 1 107 12 84 21 -43 16
-126 17 -169 2z"/>
<path d="M4460 8277 c-50 -24 -56 -30 -34 -38 10 -4 38 -8 62 -8 108 -2 150
-54 132 -164 -12 -78 -12 -87 0 -87 6 0 24 28 40 63 48 99 36 192 -29 230 -34
20 -132 22 -171 4z"/>
<path d="M5232 8254 c-34 -13 -94 -31 -133 -40 -39 -9 -69 -17 -67 -19 2 -2
51 3 108 11 58 8 115 12 127 9 24 -6 93 18 93 32 0 16 -24 33 -44 32 -12 0
-49 -11 -84 -25z"/>
<path d="M7220 8255 c0 -26 43 -43 155 -60 61 -9 135 -23 165 -30 97 -25 65
-8 -57 30 -65 21 -135 46 -155 56 -46 23 -108 26 -108 4z"/>
<path d="M6210 8215 c-7 -20 -26 -49 -43 -66 l-32 -31 31 17 c59 34 108 81
101 98 -12 31 -44 20 -57 -18z"/>
<path d="M6431 8197 c-25 -25 -12 -45 32 -49 23 -3 42 -4 43 -4 1 1 -13 15
-31 33 -24 23 -36 28 -44 20z"/>
<path d="M6120 8073 c-19 -3 -41 -9 -47 -15 -20 -17 -15 -75 11 -126 47 -92
194 -262 228 -262 18 0 83 77 186 221 63 87 78 134 50 157 -27 22 -314 38
-428 25z m395 -47 c17 -12 15 -17 -36 -67 -30 -30 -79 -83 -109 -118 l-55 -64
-83 104 c-45 57 -79 106 -74 110 4 4 74 14 157 23 82 10 151 19 154 22 8 8 27
4 46 -10z"/>
<path d="M5377 7982 c-34 -32 -75 -68 -91 -80 -32 -24 -23 -31 11 -7 11 8 57
33 101 54 75 38 99 61 86 82 -13 22 -50 5 -107 -49z"/>
<path d="M7006 7991 c-3 -5 2 -19 12 -31 13 -17 41 -26 117 -40 55 -10 113
-23 129 -29 16 -6 31 -10 33 -8 2 3 -22 15 -54 27 -32 13 -88 38 -125 57 -68
33 -102 41 -112 24z"/>
<path d="M4735 7976 c-19 -14 -17 -15 30 -16 62 0 114 -25 137 -66 19 -32 37
-139 38 -214 0 -54 13 -70 55 -70 52 0 147 -30 183 -57 43 -32 69 -90 87 -194
22 -124 25 -125 165 -73 57 21 98 29 172 32 l97 4 68 -38 c86 -49 83 -48 83
-34 0 20 -62 72 -117 97 -71 33 -167 39 -263 19 -41 -9 -87 -19 -101 -22 -25
-6 -26 -4 -32 54 -5 61 -40 150 -74 187 -48 53 -146 95 -225 95 l-38 0 0 44
c0 72 -37 173 -80 219 -35 38 -42 41 -101 45 -47 3 -69 -1 -84 -12z"/>
<path d="M5760 7868 c-12 -13 -50 -68 -86 -123 l-66 -100 101 100 c69 68 101
106 99 119 -4 29 -25 30 -48 4z"/>
<path d="M6782 7783 c2 -24 15 -34 79 -68 41 -23 90 -51 108 -64 18 -13 34
-21 37 -18 2 2 -7 12 -21 21 -14 9 -56 45 -93 80 -37 35 -77 67 -90 71 -21 6
-23 4 -20 -22z"/>
<path d="M6127 7520 c-104 -70 -201 -112 -288 -126 -77 -13 -32 -44 64 -44
126 0 209 43 294 152 75 95 54 100 -70 18z"/>
<path d="M3542 7427 c-38 -41 -23 -98 59 -218 23 -34 70 -121 105 -193 35 -72
64 -128 64 -125 0 3 -14 45 -30 95 -44 128 -80 270 -80 315 0 49 -20 99 -51
128 -29 27 -40 26 -67 -2z"/>
<path d="M6043 7337 c-17 -7 -34 -15 -37 -18 -3 -3 15 -25 39 -49 l45 -44 0
62 c0 34 -3 62 -7 61 -5 0 -22 -6 -40 -12z"/>
<path d="M6585 7303 c-3 -21 -8 -48 -11 -61 -4 -20 -2 -22 13 -13 10 6 33 24
51 40 l33 29 -34 21 c-19 11 -37 21 -40 21 -3 0 -9 -17 -12 -37z"/>
<path d="M5914 7189 c35 -50 215 -166 312 -200 32 -12 88 -24 125 -26 81 -7
129 11 319 120 141 80 177 104 169 111 -5 5 -38 -9 -274 -115 -116 -52 -123
-54 -205 -53 -104 2 -165 23 -330 118 -63 36 -119 66 -123 66 -5 0 -1 -9 7
-21z"/>
<path d="M3809 6885 c-103 -37 -159 -83 -159 -128 0 -42 56 -137 81 -137 27 0
24 22 -13 98 l-32 65 34 30 c19 16 59 41 88 54 44 21 58 23 78 15 21 -10 23
-16 18 -59 -3 -26 -2 -59 4 -72 6 -18 5 -32 -6 -51 -22 -38 -9 -79 27 -86 25
-5 32 -15 51 -66 26 -71 36 -73 15 -3 -22 72 -21 75 28 75 44 0 72 -8 199 -52
l67 -24 -16 -29 c-21 -40 -20 -101 1 -147 10 -20 53 -77 96 -126 87 -101 116
-160 107 -223 -9 -70 -55 -105 -202 -152 -75 -24 -217 -57 -248 -57 -7 0 -18
15 -25 33 -12 33 -102 146 -174 218 -28 28 -51 41 -94 50 l-56 13 4 100 c3 95
6 105 41 168 40 72 57 90 57 61 0 -35 48 -120 80 -143 43 -31 114 -24 147 15
39 45 24 73 -46 82 -39 5 -40 7 -74 87 -20 44 -45 113 -56 151 -25 83 -55 135
-76 135 -24 0 -18 -42 15 -101 16 -30 54 -103 85 -163 54 -104 56 -109 39
-128 -18 -19 -18 -18 -35 14 -10 18 -29 46 -42 63 -24 28 -24 31 -9 63 30 63
-15 89 -88 52 -93 -48 -172 -145 -209 -258 -23 -70 -44 -245 -35 -289 4 -20
-1 -36 -17 -57 l-23 -29 -18 23 c-30 37 -58 145 -58 226 0 45 -4 74 -11 74
-17 0 -57 -100 -70 -174 -16 -93 -7 -219 21 -298 16 -44 21 -73 16 -92 -9 -36
-12 -33 -90 83 -58 87 -80 145 -91 244 -8 67 -25 74 -50 20 -26 -54 -17 -202
19 -308 29 -84 82 -195 122 -254 38 -57 28 -63 -35 -21 -85 56 -169 169 -186
249 -7 33 -8 34 -21 16 -28 -38 -9 -191 31 -260 37 -64 149 -179 199 -205 45
-24 45 -25 45 -76 -1 -63 18 -101 72 -148 55 -47 127 -70 214 -70 117 0 176
37 322 203 40 46 72 86 69 88 -9 9 -74 -32 -151 -95 -44 -36 -105 -76 -135
-90 -115 -53 -288 -22 -338 61 -18 29 -39 107 -29 107 2 0 23 -19 47 -41 101
-97 181 -105 343 -35 59 25 112 46 117 46 6 0 10 4 10 9 0 18 -47 20 -120 3
-41 -9 -106 -17 -145 -17 -58 1 -79 6 -123 30 -96 52 -130 117 -118 219 l8 57
24 -49 c51 -102 159 -175 259 -176 54 0 274 29 283 38 14 15 -20 21 -154 27
-129 7 -152 11 -200 34 -70 34 -130 103 -150 172 -16 54 -14 89 9 183 l10 44
14 -68 c46 -226 217 -352 451 -331 89 8 95 25 8 25 -138 0 -228 33 -302 112
-122 131 -132 299 -24 422 18 20 50 46 71 57 37 19 111 25 144 13 29 -11 174
-186 186 -223 18 -55 37 -71 83 -71 54 0 224 42 306 75 164 68 210 117 210
225 0 53 -5 70 -36 123 -20 34 -71 99 -114 144 -94 97 -110 136 -89 210 7 26
12 52 11 56 -9 31 84 124 155 153 47 20 138 15 176 -10 18 -12 43 -52 72 -111
31 -66 55 -101 82 -122 94 -74 126 -68 55 10 -38 42 -55 71 -67 114 -41 148
-81 192 -187 208 -64 10 -148 -16 -198 -61 l-39 -35 -45 35 c-25 19 -62 40
-83 47 -57 20 -159 16 -215 -9 l-48 -21 -11 44 c-13 53 -49 95 -81 94 -13 0
-39 -6 -59 -14z m185 -527 c-6 -9 -44 -11 -44 -2 0 4 8 13 17 20 18 13 38 0
27 -18z"/>
<path d="M8698 6787 c-26 -8 -63 -26 -83 -42 -41 -30 -90 -102 -100 -144 -4
-17 -26 -38 -66 -64 -65 -43 -139 -135 -164 -208 -9 -24 -20 -91 -26 -149 -19
-197 -54 -274 -189 -414 -97 -102 -224 -203 -344 -276 -46 -27 -245 -130 -442
-227 -339 -168 -411 -213 -256 -162 247 81 728 311 882 420 152 107 296 254
343 349 48 96 67 167 67 256 0 148 34 242 120 332 125 131 274 121 329 -20 19
-51 20 -52 20 -19 1 36 -34 121 -49 121 -15 0 -40 31 -40 50 0 47 118 140 178
140 72 0 1 55 -83 64 -28 3 -70 0 -97 -7z"/>
<path d="M9607 6655 c13 -83 8 -166 -15 -217 -25 -57 -46 -70 -102 -60 l-43 7
-1 61 c-1 49 -7 69 -35 115 -30 50 -67 87 -77 77 -2 -3 1 -20 6 -39 26 -88 0
-197 -43 -185 -12 3 -27 6 -34 6 -6 0 -14 24 -18 53 -10 75 -28 111 -68 135
-46 29 -62 28 -42 -2 16 -24 23 -135 10 -156 -3 -5 -29 -10 -57 -10 -60 0
-128 -29 -158 -67 -27 -35 -43 -99 -35 -141 7 -37 45 -82 70 -82 14 0 14 3 1
29 -20 37 -30 103 -22 135 9 37 82 86 127 86 49 0 55 -12 27 -52 -13 -18 -24
-34 -25 -36 -1 -2 -11 2 -24 8 -20 11 -21 10 -14 -6 17 -42 17 -56 0 -74 -10
-11 -24 -20 -32 -20 -9 0 -13 -7 -11 -17 4 -18 11 -19 61 -7 21 5 27 3 27 -10
0 -18 74 -96 91 -96 7 0 8 11 4 30 -5 21 -3 30 6 30 7 0 23 10 36 22 l23 21 0
-27 c0 -39 23 -87 59 -120 41 -39 49 -28 15 24 -46 69 -29 175 37 223 41 30
133 34 197 8 65 -26 65 -26 56 1 -6 21 -5 21 10 9 11 -9 16 -25 14 -45 -2 -25
-9 -32 -36 -40 -45 -13 -109 -78 -152 -155 -66 -118 -129 -206 -164 -230 -55
-36 -164 -72 -236 -77 -55 -4 -82 0 -175 29 -60 19 -112 33 -114 31 -21 -19
131 -96 239 -120 62 -14 77 -14 143 -1 96 20 181 60 232 111 41 41 53 65 74
143 7 26 32 65 61 99 28 32 50 61 50 65 0 5 19 22 42 39 48 35 80 37 174 14
54 -14 64 -19 59 -35 -4 -13 2 -22 24 -34 38 -19 51 -43 51 -95 0 -147 -98
-323 -244 -439 -147 -118 -231 -135 -621 -132 -159 1 -339 -3 -400 -8 -199
-18 -407 -85 -582 -187 -186 -109 -605 -465 -578 -492 5 -5 20 6 110 79 227
181 289 228 370 282 166 109 307 170 483 208 83 18 151 22 482 29 398 9 468
16 577 58 188 71 342 236 403 430 15 48 39 104 53 125 40 58 60 132 54 191
-12 117 -108 376 -138 376 -6 0 -8 -3 -6 -7 12 -20 27 -202 21 -255 -8 -72
-33 -109 -61 -91 -43 30 -91 51 -130 58 l-41 6 31 66 c63 135 46 272 -44 359
l-41 39 9 -50z m-263 -284 c3 -5 -5 -16 -18 -25 -14 -8 -33 -29 -42 -46 -22
-37 -30 -38 -38 -5 -11 42 -36 31 -36 -15 0 -45 -21 -94 -44 -103 -8 -3 -22 0
-32 7 -13 10 -16 23 -12 61 7 55 30 91 78 116 36 20 134 26 144 10z"/>
<path d="M4061 6509 c34 -109 23 -177 -33 -199 -18 -8 -43 -24 -56 -37 -17
-19 -31 -23 -60 -21 -33 3 -42 10 -82 65 -25 34 -49 60 -54 59 -16 -4 -37 -77
-43 -147 l-6 -66 53 -17 c29 -9 55 -15 58 -12 3 3 10 -2 16 -13 21 -36 109
-141 118 -141 5 0 24 11 41 24 61 46 90 54 207 60 106 6 200 22 200 33 0 3
-23 25 -50 50 -83 74 -143 196 -167 338 -8 49 -8 49 -63 67 -30 9 -65 17 -76
17 l-22 1 19 -61z m-262 -261 c-15 -28 -24 -9 -14 30 6 23 8 24 16 9 7 -11 6
-24 -2 -39z m51 -60 c0 -9 -4 -20 -10 -23 -6 -4 -10 9 -10 32 0 28 3 34 10 23
5 -8 10 -23 10 -32z m-63 0 c-3 -8 -6 -5 -6 6 -1 11 2 17 5 13 3 -3 4 -12 1
-19z"/>
<path d="M4371 6504 c-14 -18 -21 -41 -21 -70 0 -24 2 -44 5 -44 3 0 14 20 25
45 11 25 26 45 33 45 43 0 134 -95 183 -192 29 -57 30 -84 5 -98 -31 -16 -48
-12 -86 21 -20 18 -39 29 -42 25 -8 -8 15 -51 44 -82 31 -34 101 -34 140 0 62
53 25 190 -80 295 -67 67 -91 80 -144 81 -33 0 -46 -5 -62 -26z"/>
<path d="M4710 6488 c0 -4 10 -33 21 -65 44 -117 116 -194 199 -212 123 -26
154 2 41 39 -60 19 -77 31 -144 98 -41 42 -85 93 -96 112 -12 19 -21 32 -21
28z"/>
<path d="M8634 6421 c-95 -58 -122 -224 -49 -297 22 -21 75 -34 75 -18 0 4
-12 18 -26 31 -24 22 -26 30 -22 84 3 45 11 69 34 101 41 58 54 60 54 4 0 -57
12 -65 33 -20 47 99 -12 168 -99 115z"/>
<path d="M8780 6297 c0 -24 -7 -61 -15 -80 -8 -20 -15 -39 -15 -42 0 -7 39 -6
68 1 24 7 31 34 7 34 -10 0 -15 16 -17 62 -4 74 -28 96 -28 25z"/>
<path d="M9393 6283 c-7 -2 -13 -9 -13 -14 0 -4 7 -6 16 -2 40 15 61 -84 27
-126 -10 -12 -36 -28 -58 -35 -50 -17 -57 -36 -15 -36 41 0 96 34 115 70 41
80 -5 171 -72 143z"/>
<path d="M4900 6141 c0 -15 66 -70 102 -85 50 -21 216 -22 244 -1 10 8 17 15
14 15 -3 0 -59 7 -125 14 -84 10 -137 22 -178 39 -31 14 -57 23 -57 18z"/>
<path d="M8779 6105 c-107 -34 -139 -110 -77 -180 61 -71 198 -115 350 -115
73 0 122 11 108 23 -3 3 -61 16 -129 30 -125 26 -201 56 -255 100 -62 50 5 90
154 91 52 1 105 -1 117 -4 38 -9 28 14 -16 39 -55 30 -183 38 -252 16z"/>
<path d="M9593 6100 c-29 -12 -30 -30 -2 -30 62 0 74 -42 35 -125 -30 -66 -94
-123 -146 -131 -47 -8 -48 -25 -2 -38 72 -20 172 35 212 119 32 66 32 156 0
190 -24 26 -57 31 -97 15z"/>
<path d="M4123 6025 c-83 -42 -123 -102 -109 -160 9 -34 23 -32 31 5 14 63 66
84 265 107 74 8 139 19 144 23 4 5 -7 16 -25 26 -25 13 -64 19 -144 22 -103 3
-113 2 -162 -23z"/>
<path d="M9140 6005 c0 -2 9 -24 19 -47 11 -24 22 -52 26 -62 10 -32 28 -3 20
33 -7 32 -40 81 -56 81 -5 0 -9 -2 -9 -5z"/>
<path d="M8525 5936 c9 -85 19 -121 46 -161 43 -62 132 -102 249 -111 61 -5
64 -4 45 11 -11 9 -56 35 -100 58 -101 53 -162 113 -197 197 -36 89 -53 91
-43 6z"/>
<path d="M5150 5955 c44 -47 172 -116 285 -155 60 -20 145 -50 188 -65 43 -15
81 -25 84 -22 19 20 -53 57 -247 127 -80 29 -188 72 -240 96 -85 41 -92 42
-70 19z"/>
<path d="M5674 5866 c-55 -24 -48 -34 24 -29 61 5 69 3 94 -20 39 -36 49 -84
37 -185 -19 -169 -62 -304 -143 -445 -58 -102 -104 -157 -162 -196 -55 -36
-93 -39 -120 -10 -16 17 -19 37 -19 110 0 49 -3 89 -7 89 -13 0 -30 -73 -31
-134 -4 -205 199 -190 360 27 92 124 150 279 173 459 5 45 11 83 13 85 2 2 24
-12 48 -30 189 -144 1045 -767 1139 -828 435 -286 725 -454 861 -499 35 -12
80 -32 99 -44 19 -13 55 -32 80 -43 25 -11 77 -46 115 -77 68 -56 200 -127
260 -141 16 -4 28 -4 25 -2 -10 10 -327 244 -370 274 -82 56 -146 90 -256 138
-60 26 -129 58 -154 72 -83 47 -646 411 -781 505 -435 302 -878 597 -981 652
l-86 47 0 50 c-1 37 -9 64 -30 101 -44 80 -113 106 -188 74z"/>
<path d="M5700 5817 c-23 -9 -23 -10 -5 -15 11 -2 26 -9 34 -15 52 -43 -95
-490 -214 -649 -47 -64 -65 -63 -65 3 0 60 -13 57 -29 -7 -32 -124 61 -131
161 -12 102 121 153 243 193 457 19 103 19 162 1 205 -15 37 -40 48 -76 33z"/>
<path d="M4387 5556 c-48 -18 -70 -37 -117 -106 -41 -60 -72 -80 -165 -107
-67 -19 -53 -28 34 -21 76 6 123 31 166 87 50 65 83 83 154 82 66 0 234 -40
421 -99 308 -98 420 -135 493 -158 44 -14 81 -23 84 -21 8 8 -236 123 -421
198 -349 142 -538 184 -649 145z"/>
<path d="M4781 5293 c-82 -49 -182 -156 -301 -323 -52 -73 -124 -165 -159
-203 -72 -79 -154 -203 -261 -392 -40 -71 -122 -204 -183 -295 -101 -150 -267
-460 -402 -750 -17 -36 -88 -177 -158 -315 -157 -307 -207 -450 -177 -504 12
-24 80 -51 128 -51 63 0 95 15 269 123 184 116 214 136 197 137 -19 0 -121
-48 -275 -132 -164 -88 -232 -107 -269 -73 -53 48 -10 151 209 501 28 45 76
135 107 200 158 335 300 612 374 729 138 216 183 292 284 481 80 149 115 203
197 300 55 66 131 164 169 220 88 126 193 252 273 326 34 31 57 57 52 58 -6 0
-39 -17 -74 -37z"/>
<path d="M4732 5133 c-5 -10 -15 -36 -22 -58 -7 -22 -21 -53 -31 -70 -29 -47
-22 -49 18 -4 20 22 54 49 75 60 39 20 46 36 28 70 -13 24 -56 25 -68 2z"/>
<path d="M5884 5075 c-10 -25 3 -43 48 -66 24 -12 62 -35 85 -50 23 -16 43
-29 46 -29 10 0 -140 147 -156 153 -11 4 -20 1 -23 -8z"/>
<path d="M8210 5084 c0 -7 144 -215 305 -444 205 -289 240 -340 300 -440 170
-284 358 -666 580 -1185 121 -282 144 -362 129 -450 -14 -85 -44 -115 -113
-115 -44 0 -99 35 -511 321 -238 166 -272 187 -210 129 70 -64 422 -328 559
-419 113 -75 127 -81 173 -81 65 0 129 35 152 84 49 104 -11 319 -234 841
-214 500 -459 941 -749 1350 -123 174 -381 451 -381 409z"/>
<path d="M8032 5064 c-12 -8 -22 -26 -22 -39 0 -20 7 -26 40 -35 21 -6 42 -15
45 -20 3 -6 14 -14 23 -19 13 -7 9 8 -16 60 -18 38 -37 69 -41 69 -3 0 -17 -7
-29 -16z"/>
<path d="M5810 4949 c14 -11 111 -84 217 -164 105 -79 264 -208 353 -287 445
-394 718 -611 1270 -1007 519 -373 1030 -721 1240 -845 63 -38 126 -75 140
-84 18 -10 13 -3 -15 27 -69 72 -222 183 -542 392 -290 191 -406 272 -583 412
-41 33 -122 91 -180 130 -150 101 -349 250 -465 350 -55 47 -167 141 -250 209
-82 67 -222 186 -310 262 -383 336 -531 447 -756 565 -117 62 -166 78 -119 40z"/>
<path d="M4450 4778 c-11 -18 -20 -40 -20 -49 0 -8 -15 -40 -33 -70 -52 -86
-52 -87 5 -28 29 30 68 64 86 74 43 26 53 62 22 87 -30 25 -37 23 -60 -14z"/>
<path d="M6300 4797 c0 -22 62 -73 129 -107 36 -18 91 -57 123 -88 32 -30 58
-52 58 -49 0 14 -186 199 -228 227 -48 32 -82 39 -82 17z"/>
<path d="M8279 4734 c-23 -26 -24 -27 -4 -38 10 -6 46 -36 79 -66 32 -30 57
-50 55 -45 -2 6 -19 38 -37 72 -17 34 -32 72 -32 83 0 29 -31 26 -61 -6z"/>
<path d="M6020 4556 c-501 -290 -952 -524 -1180 -611 -69 -26 -139 -53 -157
-61 -17 -7 -70 -22 -117 -33 -47 -11 -102 -28 -123 -36 -39 -17 -215 -146
-208 -153 2 -2 38 14 79 37 97 53 154 74 306 110 353 83 656 216 1060 464 257
158 480 319 480 348 0 15 -10 10 -140 -65z"/>
<path d="M4172 4355 c-7 -14 -12 -32 -12 -39 0 -7 -13 -39 -28 -70 -16 -31
-27 -56 -25 -56 2 0 16 14 30 30 14 17 45 44 69 61 30 20 44 37 44 52 0 50
-58 65 -78 22z"/>
<path d="M8572 4334 c-28 -20 -28 -50 1 -65 12 -6 39 -27 60 -47 41 -40 44
-39 21 6 -8 17 -18 48 -21 69 -9 53 -24 63 -61 37z"/>
<path d="M6887 4284 c-19 -19 33 -70 141 -141 64 -42 152 -103 194 -135 105
-79 110 -73 7 10 -46 37 -124 105 -174 151 -81 75 -140 121 -156 121 -3 0 -8
-3 -12 -6z"/>
<path d="M6323 4237 c-22 -18 -49 -38 -59 -45 -18 -12 -18 -13 1 -6 11 4 42
11 68 17 52 11 68 30 46 52 -12 12 -20 10 -56 -18z"/>
<path d="M6425 4062 c-130 -69 -270 -151 -620 -365 -627 -383 -680 -413 -1079
-616 -228 -117 -361 -176 -731 -326 -185 -76 -341 -147 -359 -165 -11 -11 9
-6 169 41 259 76 472 156 840 317 160 70 573 294 868 472 451 269 1071 691
1016 690 -8 0 -54 -22 -104 -48z"/>
<path d="M6564 3977 c-8 -22 21 -129 57 -204 80 -168 328 -262 562 -213 83 17
77 27 -11 22 -204 -11 -405 105 -516 297 -51 89 -82 122 -92 98z"/>
<path d="M6448 3954 c-9 -11 -38 -62 -64 -114 -59 -119 -129 -190 -235 -242
-84 -42 -187 -63 -237 -49 -39 12 -42 4 -4 -10 95 -37 219 -30 319 17 69 33
152 109 185 171 32 59 60 163 56 210 -3 34 -4 35 -20 17z"/>
<path d="M8802 3918 c-20 -20 -14 -34 47 -96 55 -56 58 -58 45 -27 -11 28 -19
68 -23 128 -1 12 -56 8 -69 -5z"/>
<path d="M3882 3898 c-6 -7 -15 -38 -20 -68 -6 -31 -20 -79 -31 -108 -11 -28
-19 -52 -17 -52 2 0 24 32 50 70 25 39 51 70 56 70 5 0 17 11 26 25 15 23 15
27 0 50 -18 27 -47 33 -64 13z"/>
<path d="M7650 3726 c0 -22 62 -71 121 -97 30 -13 137 -65 238 -116 102 -51
186 -91 188 -90 1 2 -42 27 -95 57 -53 30 -149 89 -212 131 -113 75 -209 129
-230 129 -5 0 -10 -6 -10 -14z"/>
<path d="M8550 3648 c0 -14 36 -56 102 -122 l102 -101 -47 68 c-26 37 -54 82
-63 100 -35 70 -94 104 -94 55z"/>
<path d="M9040 3519 c-11 -19 -7 -26 28 -63 22 -22 49 -57 61 -76 24 -40 25
-39 10 10 -6 19 -14 60 -17 90 -7 53 -8 55 -39 58 -24 2 -34 -2 -43 -19z"/>
<path d="M5022 3395 c-56 -35 -119 -73 -139 -84 -58 -31 -33 -25 57 14 45 19
107 42 137 51 57 17 109 56 98 74 -14 22 -56 7 -153 -55z"/>
<path d="M7567 3423 c-10 -19 -80 -384 -74 -389 6 -7 437 147 437 156 0 3 -19
16 -43 29 -58 33 -180 115 -250 167 -61 47 -64 48 -70 37z"/>
<path d="M3636 3412 c-3 -5 -8 -33 -12 -63 -3 -30 -13 -69 -20 -88 -21 -52
-10 -48 26 9 18 29 44 58 57 67 12 8 23 24 23 34 0 29 -60 63 -74 41z"/>
<path d="M7431 3364 c-36 -46 -54 -158 -66 -419 -3 -71 -13 -211 -21 -310 -11
-123 -13 -200 -7 -245 l9 -65 8 115 c8 120 63 487 91 600 19 79 38 284 29 323
-7 34 -17 34 -43 1z"/>
<path d="M8520 3298 c0 -25 38 -62 185 -182 151 -122 151 -122 55 -20 -47 50
-112 120 -145 157 -62 69 -95 85 -95 45z"/>
<path d="M5325 3238 c-32 -22 -96 -65 -142 -94 -46 -29 -80 -55 -75 -58 35
-21 291 -106 322 -106 14 0 14 14 -6 148 -13 81 -23 148 -23 150 -3 8 -25 -3
-76 -40z"/>
<path d="M4005 3224 c-49 -25 -112 -92 -215 -229 -151 -201 -136 -204 59 -10
162 161 211 218 211 244 0 15 -19 14 -55 -5z"/>
<path d="M5480 3102 c0 -73 7 -102 69 -294 86 -265 108 -359 137 -603 l8 -60
7 45 c20 118 5 276 -46 515 -58 268 -106 414 -150 455 l-25 23 0 -81z"/>
<path d="M4315 3050 c-38 -28 -83 -60 -102 -71 -48 -30 -40 -33 15 -6 26 14
77 34 115 46 69 23 109 57 84 73 -24 15 -45 7 -112 -42z"/>
<path d="M3416 2954 c-10 -9 -16 -33 -16 -58 0 -24 -7 -63 -15 -86 -20 -58
-18 -73 5 -30 10 19 37 53 59 75 42 40 49 62 31 96 -13 23 -43 25 -64 3z"/>
<path d="M9145 2890 c-16 -17 -16 -24 -6 -47 7 -15 31 -43 53 -62 22 -19 60
-62 84 -95 24 -33 44 -57 44 -53 0 3 -18 41 -39 84 -22 43 -43 92 -47 108 -19
81 -53 105 -89 65z"/>
<path d="M8377 2343 c-14 -14 -34 -18 -100 -18 -97 0 -166 -21 -221 -67 -80
-65 -109 -193 -65 -281 54 -108 104 -127 326 -127 164 0 201 -8 238 -50 29
-32 27 -105 -3 -147 -12 -17 -48 -44 -80 -60 -49 -24 -69 -28 -142 -28 -101 0
-137 16 -185 85 -21 30 -40 46 -57 48 -43 5 -47 -14 -24 -118 24 -111 40 -122
98 -72 32 29 35 29 91 21 117 -19 251 25 333 107 123 122 78 332 -86 407 -38
17 -74 21 -220 27 -175 6 -212 13 -224 46 -25 65 24 135 111 160 91 26 191 -1
253 -70 63 -68 76 -38 37 80 -26 75 -47 90 -80 57z"/>
<path d="M4575 2299 c-72 -12 -188 -74 -249 -134 -83 -82 -125 -194 -111 -301
14 -112 107 -248 213 -311 88 -52 240 -77 323 -52 35 11 40 10 70 -15 48 -41
61 -32 80 53 32 140 32 136 -10 154 -21 10 -43 17 -50 17 -14 0 -28 -31 -36
-81 -3 -20 -13 -44 -23 -52 -55 -50 -197 -62 -272 -24 -89 45 -101 109 -56
302 71 299 136 415 234 415 50 0 127 -34 170 -74 45 -42 45 -43 43 -108 l-1
-66 36 -7 c20 -3 40 -3 44 2 9 9 40 154 40 184 0 21 -38 26 -69 10 -14 -8 -30
-2 -70 25 -29 19 -69 41 -89 48 -50 18 -156 25 -217 15z"/>
<path d="M7695 2201 c-66 -12 -90 -20 -90 -31 0 -11 13 -16 48 -18 l47 -3 0
-48 c0 -26 -14 -105 -30 -177 -17 -71 -33 -142 -36 -159 -3 -16 -13 -52 -21
-78 -12 -39 -17 -46 -29 -36 -27 22 -174 248 -173 266 0 10 15 59 32 108 29
82 35 92 70 108 54 27 47 41 -15 34 -29 -3 -132 -15 -228 -26 -156 -17 -414
-38 -555 -44 -38 -2 -51 -6 -53 -19 -3 -15 4 -18 36 -18 l39 0 58 -112 c71
-137 253 -460 307 -545 22 -34 45 -64 53 -67 23 -8 43 25 105 179 33 83 63
151 68 153 5 1 46 -53 91 -122 89 -133 122 -172 144 -163 12 4 51 150 114 427
51 226 85 346 101 358 9 7 27 15 40 19 12 3 22 11 22 19 0 18 -29 17 -145 -5z
m-265 -89 c0 -14 -32 -116 -42 -135 -13 -24 -29 -11 -68 58 -37 65 -37 73 -2
78 51 8 112 7 112 -1z m-239 -211 c117 -192 113 -178 70 -275 -11 -26 -25 -45
-30 -42 -24 15 -283 475 -275 488 3 5 33 8 67 6 l62 -3 106 -174z"/>
<path d="M5166 2182 c-8 -13 13 -29 44 -34 19 -2 26 -10 28 -30 2 -20 -80
-535 -104 -647 -5 -21 -9 -23 -44 -17 -32 5 -40 3 -40 -9 0 -8 10 -17 23 -19
12 -3 35 -7 50 -11 112 -24 605 -79 657 -74 l35 4 12 85 c6 47 12 102 12 123
1 37 1 37 -38 37 -47 0 -71 -30 -71 -89 0 -45 -25 -71 -88 -92 -41 -14 -249
-6 -264 9 -6 6 -6 37 1 83 6 41 22 160 36 264 14 105 30 225 36 269 l12 78 58
-6 c53 -6 59 -5 59 12 0 16 -19 21 -172 41 -95 12 -187 24 -204 27 -18 3 -34
1 -38 -4z"/>
<path d="M6291 2088 c-57 -150 -312 -677 -340 -702 -11 -10 -38 -20 -61 -23
-23 -3 -39 -10 -37 -17 4 -13 155 -28 215 -20 48 6 57 24 11 24 -38 0 -69 16
-69 36 0 8 17 46 38 84 l37 69 120 0 c66 0 128 -2 139 -6 11 -3 34 -38 58 -91
41 -89 40 -101 -7 -102 -17 0 -17 -2 -5 -10 16 -10 301 -14 338 -4 31 9 27 24
-7 24 -27 0 -32 9 -154 273 -70 149 -146 319 -170 377 -39 93 -47 105 -70 108
-21 3 -29 -2 -36 -20z m-1 -383 c29 -69 51 -127 49 -129 -5 -5 -104 -9 -176
-7 -37 1 -53 5 -53 14 0 24 113 247 125 247 1 0 26 -56 55 -125z"/>
</g>
</svg>
